<svg xmlns="http://www.w3.org/2000/svg" height="28" viewBox="415 900 1130 297" fill="currentColor" aria-hidden="true" style="display:inline-block;vertical-align:middle"><path d="M572.6,1092.6c-4.6,0-16.5-.7-26.8-6.9-10-6.1-16.6-13.1-21.9-18.7-2.2-2.4-4.3-4.6-6.3-6.3-3.5-3.1-7.7-6.3-10.6-8.4l-4.7-3.4h.2c0-.1-.2-.3-.2-.3l4.7-3.4c2.9-2.1,7.1-5.2,10.6-8.4,2-1.8,4.1-4,6.3-6.3,5.3-5.6,11.9-12.6,21.9-18.7,13-7.9,28.7-6.9,28.8-6.9h0s0,0,0,0c0,0,15.8-1,28.8,6.9,10.1,6.1,16.6,13.1,21.9,18.7,2.2,2.3,4.3,4.6,6.3,6.3h0c3.5,3.1,7.7,6.3,10.6,8.4l4.7,3.4-.2.2h.2c0,.1-4.7,3.6-4.7,3.6-2.9,2.1-7.1,5.2-10.6,8.4-2,1.8-4,3.9-6.2,6.3-5.3,5.7-11.9,12.6-21.9,18.7-12.4,7.5-27.2,6.9-28.8,6.9h0s0,0,0,0h0s-.7,0-2,0ZM575.2,1084.6c.7,0,13.7.6,24.1-5.7,9.1-5.5,15.3-12,20.2-17.3,2.4-2.5,4.6-4.8,6.8-6.8,2.1-1.9,4.4-3.7,6.6-5.4l-.8-.5.8-.5c-2.2-1.7-4.5-3.5-6.6-5.4-2.3-2-4.5-4.4-6.8-6.8-4.9-5.3-11.1-11.8-20.2-17.3-10.7-6.4-24-5.7-24.1-5.7h-.5s-.5,0-.5,0c-.1,0-13.5-.7-24.2,5.7-9.1,5.5-15.2,12-20.2,17.3-2.4,2.5-4.6,4.8-6.8,6.8-2.1,1.9-4.4,3.7-6.6,5.4l.8.5-.8.5c2.2,1.7,4.5,3.5,6.6,5.4,2.3,2,4.5,4.3,6.8,6.8,5,5.3,11.1,11.8,20.2,17.3,10.6,6.4,24,5.7,24.1,5.7h.5s.6,0,.6,0Z" fill-rule="nonzero"/><path d="M574.6,1197.1c-.9,0-1.8,0-2.7,0-30.6,0-69.7-4.2-85.1-5.9-7.7-.9-14.7-1.8-21.2-2.6-3.8-.4-6.1-1-10.8-2.3h-.1c-8-2.6-16.2-5.8-21.7-12.4-5.1-6.1-7.6-13.8-9.7-21.1-1-3.5-1.1-4.9-1.3-6.5,0-.6-.2-1.4-.3-2.4h0c-1-8.7-1.8-15.2-2.4-21.8-1.1-10.9-2.5-27-3.3-42.4-.6-8.9-.9-19.3-.9-30.9,0-11.6.3-22,.9-31,.8-15.3,2.2-31.4,3.3-42.3.7-6.7,1.4-13.2,2.4-21.7h0c.2-1.1.2-1.9.3-2.5.2-1.6.3-3,1.3-6.4,2.2-7.4,4.7-15.1,9.7-21.2,5.5-6.6,13.7-9.9,21.7-12.4h.1c4.7-1.4,6.9-1.9,10.8-2.3,6.5-.8,13.5-1.7,21.2-2.6,15.4-1.7,54.5-5.8,85.1-5.9.8,0,1.7,0,2.6,0,.9,0,1.8,0,2.7,0,30.6,0,69.7,4.2,85.1,5.9,7.7.9,14.7,1.8,21.2,2.6,3.8.4,6.1,1,10.8,2.3h.1c8,2.6,16.2,5.8,21.7,12.4,5.1,6.1,7.6,13.8,9.7,21.1,1,3.5,1.1,4.9,1.3,6.5,0,.6.2,1.4.3,2.4h0c1,8.7,1.8,15.1,2.4,21.8,1.1,10.8,2.5,27,3.3,42.3.6,8.9.9,19.3.9,30.9,0,11.6-.3,22-.9,31-.8,15.3-2.2,31.4-3.3,42.3-.7,6.7-1.4,13.2-2.4,21.7h0c-.2,1.1-.2,1.9-.3,2.5-.2,1.6-.3,3-1.3,6.4-2.1,7.4-4.7,15.1-9.7,21.2-5.5,6.6-13.7,9.9-21.7,12.4h-.1c-4.6,1.4-6.9,1.9-10.8,2.3-6.5.8-13.5,1.7-21.2,2.6-15.4,1.7-54.5,5.8-85.1,5.9-.8,0-1.7,0-2.6,0ZM457.2,1178.6c4.6,1.3,6.3,1.7,9.3,2h.1c6.4.8,13.5,1.7,21.1,2.6,15.3,1.7,54,5.8,84.3,5.9.9,0,1.7,0,2.6,0,.8,0,1.7,0,2.6,0,30.3,0,69-4.1,84.3-5.9,7.7-.9,14.7-1.7,21.1-2.6h.1c3.1-.3,4.8-.7,9.3-2,6.8-2.2,13.7-4.9,17.9-9.9,4.1-4.9,6.3-11.7,8.2-18.2.8-2.8.9-3.7,1.1-5.1,0-.7.2-1.5.3-2.6,1-8.4,1.7-14.8,2.4-21.4,1.5-15.2,2.7-30.1,3.3-42,.6-8.8.9-19.1.9-30.5,0-11.5-.3-21.7-.9-30.4h0c-.6-11.9-1.8-26.8-3.3-42.1-.7-6.6-1.4-13-2.4-21.4-.2-1.1-.3-1.9-.3-2.6-.2-1.4-.3-2.4-1.1-5.2-1.9-6.5-4.1-13.3-8.2-18.2-4.2-5-11.1-7.7-17.9-9.9-4.6-1.3-6.3-1.7-9.3-2h-.1c-6.4-.8-13.4-1.7-21.1-2.6-15.3-1.7-54-5.8-84.3-5.9-.9,0-1.7,0-2.6,0-.9,0-1.7,0-2.6,0-30.3,0-69,4.1-84.3,5.9-7.7.9-14.7,1.7-21.1,2.6h-.1c-3.1.3-4.8.7-9.3,2-6.8,2.2-13.7,4.9-17.9,9.9-4.1,4.9-6.3,11.7-8.2,18.2-.8,2.8-.9,3.7-1.1,5.1,0,.7-.2,1.5-.3,2.6-1,8.4-1.7,14.8-2.4,21.4-1.5,15.2-2.7,30.1-3.3,42-.6,8.8-.9,19.1-.9,30.5,0,11.4.3,21.7.9,30.4.6,11.9,1.8,26.8,3.3,42.1.7,6.6,1.4,13,2.4,21.4.2,1.1.3,1.9.4,2.6.2,1.4.3,2.4,1.1,5.2,1.9,6.5,4.1,13.3,8.2,18.2,4.2,5,11.1,7.7,17.9,9.9Z" fill-rule="nonzero"/><path d="M577.6,1172.9c-1.4,0-2.7,0-4.1,0-.8,0-1.6,0-2.3,0-.6,0-1.1,0-1.7,0h-.7c-20.9-.6-48.8-3.5-71.1-7.6-4.6-.8-9-1.7-13.3-2.6l-4.1-.8c-3-.6-5.1-1.2-8.8-2.5-5.7-2-12.8-5.1-18-11-4.4-5-6.9-11.1-8.8-16.5-1-2.8-1.2-3.9-1.6-5.4,0-.4-.2-.9-.3-1.5-.3-1.3-.5-2.4-.8-3.6-.9-4.3-1.8-8.7-2.6-13.4-.4-2.4-.7-4.4-1-6.4-1.3-9.5-1.9-19.8-2.3-27.7-.4-7.7-.7-16.3-.7-24.9,0-7.6.3-15.8.7-24.9v-.7c.4-7.9,1-18.2,2.3-27.5.2-1.8.5-3.7.9-6,.8-4.7,1.7-9.1,2.6-13.3v-.3c.3-1.1.5-2.2.8-3.3.2-.6.3-1.1.3-1.5.3-1.5.6-2.6,1.6-5.4,1.9-5.4,4.5-11.5,8.8-16.5h0c5.1-5.8,12.3-8.9,18-11,3.7-1.3,5.8-1.9,8.8-2.5l4.1-.8c4.3-.9,8.7-1.8,13.3-2.6,22.3-4.1,50.2-7.1,71.1-7.6h.5c.6,0,1.2,0,1.8,0,.8,0,1.6,0,2.4,0,4,0,7.9,0,11.8,0,5.3.1,10.8.4,16.5.8,15.7,1.1,32.6,3.1,47.4,5.8,6,1.1,11.6,2.2,17.4,3.5l1.1.2c3.2.7,5.4,1.3,9.3,2.7,5.9,2.2,13.5,5.4,18.9,11.6,4.4,4.9,6.9,11.1,8.8,16.5,1,2.8,1.2,3.9,1.6,5.4,0,.4.2.9.3,1.5.3,1.3.5,2.4.8,3.6.9,4.3,1.8,8.7,2.6,13.4.4,2.4.7,4.4,1,6.4,1.3,9.5,1.9,19.8,2.3,27.7.4,7.7.7,16.3.7,24.9,0,7.6-.3,15.8-.7,24.9v.7c-.4,7.9-1,18.2-2.3,27.5-.2,1.8-.5,3.7-.9,6-.8,4.7-1.7,9.1-2.6,13.4v.3c-.3,1.1-.5,2.2-.8,3.3-.2.6-.3,1.1-.3,1.5-.3,1.5-.6,2.6-1.6,5.4-1.9,5.4-4.5,11.6-8.9,16.5-5.4,6.1-13,9.4-18.9,11.6-3.9,1.4-6.1,2.1-9.3,2.7l-1.1.2c-5.9,1.2-11.4,2.4-17.5,3.5-14.9,2.7-31.7,4.7-47.4,5.8-5.6.4-11.2.7-16.4.8-2.5,0-5.1,0-7.6,0ZM459.5,954.7h0c-3.5,4-5.7,9.2-7.3,13.9-.8,2.3-1,3.1-1.3,4.4-.1.5-.2,1-.4,1.6-.2,1-.5,2.1-.7,3.2v.3c-.9,4.2-1.8,8.5-2.6,13.1-.4,2.1-.6,4-.9,5.7-1.3,9-1.9,19.1-2.2,26.8v.7c-.5,9-.7,17-.7,24.5,0,8.4.3,16.9.7,24.5.4,7.8,1,17.9,2.2,27,.3,1.9.6,3.8,1,6.1.8,4.5,1.7,8.8,2.5,13,.3,1.2.5,2.4.8,3.6.1.6.2,1.1.3,1.5.3,1.4.5,2.1,1.3,4.4,1.6,4.6,3.8,9.9,7.3,13.9,3.9,4.5,9.9,7,14.7,8.7,3.4,1.2,5,1.7,7.7,2.2l4.2.8c4.2.9,8.6,1.7,13.1,2.6,22,4,49.4,7,69.9,7.5h.7c.5,0,1.1,0,1.6,0,.8,0,1.5,0,2.3,0,3.9,0,7.8,0,11.5,0,5.2-.1,10.6-.4,16.1-.8,15.4-1.1,32-3.1,46.6-5.7,5.9-1.1,11.4-2.2,17.2-3.4l1.1-.2c2.8-.6,4.6-1.1,8.2-2.4,5.1-1.8,11.4-4.6,15.7-9.4,3.5-3.9,5.6-9.2,7.3-13.9.8-2.3,1-3.1,1.3-4.4.1-.5.2-1,.4-1.6.2-1,.5-2.1.7-3.2v-.3c.9-4.2,1.8-8.6,2.6-13.1.4-2.1.6-4,.9-5.7,1.3-9,1.9-19.1,2.2-26.8v-.7c.5-9,.7-17,.7-24.5,0-8.4-.3-16.9-.7-24.5-.4-7.8-1-17.9-2.2-27-.3-1.9-.6-3.8-1-6.1-.8-4.5-1.7-8.8-2.5-13-.3-1.2-.5-2.4-.8-3.6-.1-.6-.2-1.1-.3-1.5-.3-1.4-.5-2.1-1.3-4.4-1.7-4.7-3.8-10-7.3-13.9-4.3-4.8-10.6-7.5-15.7-9.4-3.5-1.3-5.4-1.8-8.2-2.4l-1.1-.2c-5.8-1.2-11.3-2.4-17.2-3.4-14.6-2.6-31.1-4.6-46.6-5.7-5.5-.4-10.9-.6-16.1-.8-3.7,0-7.6-.1-11.5,0-.8,0-1.5,0-2.3,0-.6,0-1.2,0-1.8,0h-.5c-20.5.5-47.9,3.5-69.9,7.5-4.5.8-8.9,1.7-13.2,2.6l-4.1.8c-2.7.5-4.3,1-7.7,2.2-4.8,1.7-10.7,4.3-14.7,8.7Z" fill-rule="nonzero"/><path d="M577.2,1148.8c-2.5,0-5,0-7.6-.1-.7,0-1.4,0-2.1,0-.7,0-1.4,0-2.1-.1-18.8-1-40.2-4.5-57.1-9.4-4.4-1.3-8.9-2.7-13.7-4.3-2.4-.8-4.2-1.6-6.7-2.8-6.1-2.8-10.6-5.8-14-9.4-2.9-3-5.5-6.9-7.9-11.7-1-2.1-1.4-2.9-2.1-4.8-.3-.8-.6-1.7-1-2.5l-.2-.6c-1.1-2.9-2.2-5.8-3.1-9-.5-1.7-.9-3.4-1.3-4.9-1.5-6.8-1.8-14-2.1-20.9v-.2c-.2-5.5-.5-12.2-.5-18.9h0c0,0,0-.1,0-.1,0-5.4.2-10.6.4-15.6v-3.9c.4-6.9.7-14,2.2-20.8.3-1.5.7-3,1.2-4.6,1-3.3,2.1-6.3,3.2-9.3l.2-.6c.3-.8.6-1.6.9-2.4.7-1.9,1.1-2.7,2.1-4.8,2.4-4.8,5-8.7,7.9-11.7h0c3.5-3.6,7.9-6.6,14-9.4,2.5-1.2,4.4-2,6.7-2.8,4.8-1.6,9.3-3.1,13.7-4.3,17-4.9,38.3-8.4,57.2-9.4h.4c.6,0,1.1,0,1.7-.1.7,0,1.4,0,2.1,0,3.5-.1,7-.2,10.3-.1,4.6,0,9.5.3,14.5.7,14.3,1.1,28.6,3.5,41.4,6.9,5.2,1.4,10.5,3,15.9,4.8,2.8.9,4.9,1.9,7.7,3.2,6.9,3.2,12,6.6,15.9,10.6,2.9,3,5.4,6.8,7.9,11.7,1,2.1,1.4,2.9,2.1,4.8.3.8.6,1.7,1,2.5l.2.6c1.1,2.9,2.2,5.8,3.1,9,.5,1.7.9,3.4,1.3,4.9,1.5,6.8,1.8,14,2.1,20.9v.2c.2,5.7.5,12.2.5,18.9h0c0,0,0,.1,0,.1,0,5.4-.2,10.6-.4,15.6v4c-.4,6.9-.7,14-2.2,20.8-.3,1.5-.7,3-1.2,4.6-1,3.3-2.1,6.3-3.2,9.3l-.2.7c-.3.8-.6,1.6-.9,2.4-.7,1.9-1.1,2.7-2.1,4.8-2.4,5-4.9,8.7-7.9,11.8-3.9,4.1-9,7.4-15.9,10.6-2.7,1.2-4.9,2.2-7.7,3.2-5.5,1.9-10.7,3.4-15.9,4.8-12.8,3.4-27.1,5.8-41.5,6.9-5,.4-9.9.6-14.5.7-.9,0-1.8,0-2.8,0ZM463.6,1048.8c0,6.6.3,13.3.5,18.7v.2c.3,6.6.6,13.4,1.9,19.6.3,1.3.6,2.7,1.1,4.3.9,2.9,1.9,5.8,3,8.5l.2.6c.3.8.6,1.6.9,2.4.6,1.6.9,2.2,1.9,4.2,2,4.1,4.1,7.2,6.4,9.7,2.7,2.8,6.4,5.3,11.6,7.7,2.3,1.1,3.9,1.8,6,2.5,4.7,1.6,9,3,13.3,4.2,16.4,4.7,37.1,8.1,55.4,9.1.7,0,1.3,0,2,.1.7,0,1.3,0,2,0,3.4.1,6.7.2,9.9.1,4.4,0,9.1-.3,14-.7,13.7-1.1,27.9-3.4,40-6.6,5.1-1.3,10.1-2.9,15.4-4.7,2.2-.7,4-1.5,6.9-2.8,6-2.8,10.3-5.6,13.6-8.9,2.4-2.4,4.4-5.5,6.5-9.7,1-2,1.3-2.6,1.9-4.2.3-.8.6-1.5.9-2.3l.2-.7c1.1-2.8,2.1-5.7,3-8.7.4-1.4.8-2.7,1-4,1.3-6.1,1.6-12.9,1.9-19.4v-3.9c.3-5,.5-10.1.6-15.4,0-6.6-.3-13-.5-18.7v-.2c-.3-6.6-.6-13.4-1.9-19.6-.3-1.3-.6-2.7-1.1-4.3-.9-2.9-1.9-5.8-3-8.5l-.2-.6c-.3-.8-.6-1.6-.9-2.4-.6-1.6-.9-2.2-1.9-4.2-2-4.2-4.1-7.2-6.4-9.6-3.2-3.3-7.5-6.2-13.6-8.9-3-1.4-4.8-2.1-6.9-2.8-5.3-1.8-10.3-3.3-15.4-4.7-12.2-3.2-26.4-5.6-40-6.6-4.9-.4-9.5-.6-14-.7-3.2,0-6.6,0-9.9.1-.7,0-1.3,0-2,0-.5,0-1.1,0-1.6,0h-.4c-18.3,1-39,4.4-55.4,9.1-4.3,1.2-8.7,2.6-13.3,4.2-2.1.7-3.6,1.4-6,2.5-5.2,2.4-8.9,4.8-11.6,7.7h0c-2.4,2.4-4.5,5.6-6.5,9.7-1,2-1.3,2.6-1.9,4.2-.3.8-.6,1.5-.9,2.3l-.2.6c-1.1,2.8-2.1,5.7-3,8.7-.4,1.4-.8,2.7-1,4-1.3,6.1-1.6,12.9-1.9,19.5v3.9c-.3,5-.5,10.1-.6,15.4Z" fill-rule="nonzero"/><path d="M574.7,1124.8c-4.2,0-8.4-.2-12.5-.6-26.8-2.5-50.9-12.1-67.8-27.1-3.8-3.4-7.2-7-10.1-10.8l-.4-.5c-2-2.6-4.3-5.5-5.6-9.1-1.7-4.5-1.8-9-1.9-13.3v-1.7c0-2.9-.2-5.9-.3-9,0-1.2,0-2.5-.1-3.7h0c0-.1,0-.2,0-.2,0-1.2,0-2.5.1-3.7.1-3.1.2-6.1.2-9v-1.7c.2-4.3.3-8.8,1.9-13.3,1.3-3.5,3.6-6.5,5.6-9.1l.4-.5c2.9-3.8,6.3-7.4,10.1-10.8,16.9-15,41-24.6,67.8-27.1,4.1-.4,8.3-.6,12.5-.6,4.2,0,8.4.2,12.5.6,26.8,2.5,50.9,12.1,67.8,27.1,3.8,3.4,7.2,7,10.1,10.8l.4.5c2,2.6,4.3,5.5,5.6,9.1,1.7,4.5,1.8,9,1.9,13.3v1.7c0,2.9.2,5.9.3,9.1,0,1.2,0,2.5.1,3.7h0c0,.1,0,.2,0,.2,0,1.2,0,2.5-.1,3.7-.1,3.2-.2,6.1-.2,9.1v1.7c-.2,4.3-.3,8.8-1.9,13.3-1.3,3.5-3.6,6.5-5.6,9.1l-.4.5c-2.9,3.8-6.3,7.4-10.1,10.8-16.9,15-41,24.6-67.8,27.1-4.1.4-8.3.6-12.5.6ZM484.2,1061.6v1.6c.2,3.9.3,7.5,1.5,10.8.9,2.4,2.7,4.7,4.4,6.9l.4.5c2.6,3.4,5.7,6.6,9.1,9.7,15.7,13.9,38.1,22.8,63.2,25.1,3.9.4,7.9.5,11.8.6,3.9,0,7.9-.2,11.8-.6,25.1-2.3,47.6-11.2,63.2-25.1,3.4-3,6.5-6.3,9.1-9.7l.4-.5c1.7-2.2,3.5-4.6,4.4-6.9,1.2-3.3,1.3-6.9,1.4-10.8v-1.6c0-3.1.2-6.2.3-9.3,0-1.2,0-2.4.1-3.5,0-1.2,0-2.4-.1-3.5-.1-3.1-.2-6.2-.2-9.3v-1.6c-.2-3.9-.3-7.5-1.5-10.8-.9-2.4-2.7-4.7-4.4-6.9l-.4-.5c-2.6-3.4-5.7-6.7-9.1-9.7-15.7-13.9-38.1-22.8-63.2-25.1-3.9-.4-7.9-.5-11.8-.6-3.9,0-7.9.2-11.8.6-25.1,2.3-47.6,11.2-63.2,25.1-3.4,3-6.5,6.3-9.1,9.7l-.4.5c-1.7,2.2-3.5,4.6-4.4,6.9-1.2,3.3-1.3,6.9-1.4,10.8v1.6c0,3-.2,6.2-.3,9.3,0,1.2,0,2.4-.1,3.6,0,1.2,0,2.4.1,3.6.1,3.1.2,6.2.2,9.3Z" fill-rule="nonzero"/><circle cx="574.6" cy="1048.8" r="38.2" fill="none" stroke="currentColor" stroke-width="8"/><path d="M773.4,1123.2l72.1-159.6c.7-1.4,1.9-2.6,4-2.6h2.4c2.1,0,3.3,1.2,4,2.6l71.6,159.6c1.4,3.1-.5,6.2-4,6.2h-9.5c-2.1,0-3.6-1.4-4-2.6l-17.5-39.1h-84.2l-17.3,39.1c-.5,1.2-1.9,2.6-4,2.6h-9.5c-3.6,0-5.5-3.1-4-6.2ZM886,1073c-11.6-25.8-23-51.9-34.6-77.8h-1.9l-34.6,77.8h71.1Z" fill-rule="nonzero"/><path d="M953.3,968c0-2.4,1.9-4.5,4.5-4.5h61.4c28.4,0,51.7,22.3,51.7,50.5s-14.5,40.1-35.1,48.4l32.5,60.2c1.7,3.1,0,6.9-4,6.9h-12.1c-2.1,0-3.3-1.2-3.8-2.1l-31.5-62.8h-45.3v60.5c0,2.4-2.1,4.5-4.5,4.5h-9.2c-2.6,0-4.5-2.1-4.5-4.5v-156.9ZM1018.1,1048.8c18.3,0,34.1-15.2,34.1-34.6s-15.9-33.4-34.1-33.4h-46v68h46Z" fill-rule="nonzero"/><path d="M1183.5,961.1c23.9,0,41.3,8.3,57.4,22,1.9,1.9,2.1,4.7.2,6.6-2.1,2.1-4.7,4.5-6.6,6.6-2.1,2.4-3.6,2.1-6.2-.2-12.1-10.7-29.2-18.5-45-18.5-37.5,0-65.9,31.3-65.9,68s28.5,68.5,65.9,68.5,42.7-10,42.7-10v-33.2h-27.3c-2.6,0-4.5-1.9-4.5-4.3v-8.8c0-2.6,1.9-4.5,4.5-4.5h41c2.4,0,4.3,2.1,4.3,4.5v54.3c0,1.2-.9,3.1-1.9,3.8,0,0-24.2,15.6-58.6,15.6s-85.6-37.7-85.6-85.1,38.2-85.6,85.6-85.6Z"/><path d="M1281.4,968c0-2.4,2.1-4.5,4.5-4.5h9c2.6,0,4.5,2.1,4.5,4.5v98.9c0,27,16.8,48.1,44.6,48.1s45-20.6,45-47.7v-99.3c0-2.4,1.9-4.5,4.5-4.5h9c2.4,0,4.5,2.1,4.5,4.5v100.3c0,36-25.6,63.5-63.1,63.5s-62.6-27.5-62.6-63.5v-100.3Z"/><path d="M1442.7,1104.5c1.2-1.4,2.4-3.1,3.6-4.5,2.4-3.1,5-5,8.3-2.1,1.7,1.4,19,18,40.1,18s31.8-12.1,31.8-26.1-14.2-26.1-41.5-37.5c-26.1-11.4-41.7-22-41.7-49.1s12.8-42.2,50.5-42.2,40.5,12.1,40.5,12.1c1.4.7,4.3,3.6,1.4,8.1-.9,1.4-1.9,3.1-2.8,4.5-2.1,3.3-4.5,4.3-8.3,2.1-1.7-.9-16.6-10.9-31.1-10.9-25.1,0-32.7,16.1-32.7,26.1,0,15.9,12.1,25.1,32,33.4,32,13,52.6,25.1,52.6,52.6s-23.5,42.7-51.2,42.7-46.9-16.4-50-19.2c-1.9-1.7-4.3-3.6-1.4-8.1Z"/></svg>